<svg width="340" height="246" viewBox="0 0 340 246" fill="none" xmlns="http://www.w3.org/2000/svg">
<path d="M0.96 236.12V235.16H3.84V236.12C3.84 239.672 5.808 242.84 11.568 242.84C17.328 242.84 18 238.952 18 237.032C18 227.816 1.488 231.896 1.488 219.848C1.488 217.4 2.88 211.16 11.136 211.16C19.104 211.16 20.4 217.688 20.4 220.04V221H17.52V220.04C17.52 216.44 15.456 213.56 11.136 213.56C7.056 213.56 4.368 216.104 4.368 219.848C4.368 229.4 20.88 225.128 20.88 237.032C20.88 240.872 18.768 245.24 11.568 245.24C1.2 245.24 0.96 237.416 0.96 236.12ZM34.3387 213.8V211.4H51.6668V213.8H44.4187V245H41.5387V213.8H34.3387ZM67.035 245V211.4H81.771V213.8H69.915V227.816H79.803V230.216H69.915V242.6H82.155V245H67.035ZM97.9988 245V211.4H100.879V242.408H112.399V245H97.9988ZM127.275 245V211.4H130.155V242.408H141.675V245H127.275ZM154.631 245L164.231 211.4H167.783L177.383 245H174.551L172.727 238.28H159.287L157.463 245H154.631ZM166.007 214.616L159.863 235.88H172.103L166.007 214.616ZM192.765 245V211.4H199.965C209.277 211.4 210.669 217.544 210.669 222.44C210.669 226.472 209.709 231.368 204.141 232.952L210.669 245H207.597L201.357 233.432C200.925 233.48 200.445 233.48 195.645 233.48V245H192.765ZM195.645 213.8V231.032H199.965C206.829 230.84 207.789 227.24 207.789 222.44C207.789 217.64 206.829 213.8 199.965 213.8H195.645ZM237.88 230.6V228.2H245.896V234.776C245.896 242.936 240.952 245.24 236.152 245.24C226.84 245.24 225.592 237.512 225.592 228.2C225.592 218.888 226.84 211.16 236.152 211.16C241.144 211.16 245.416 213.656 245.416 219.608V220.568H242.632V219.608C242.632 215.048 239.704 213.56 236.152 213.56C229.288 213.56 228.472 219.368 228.472 228.2C228.472 237.032 229.288 242.84 236.152 242.84C240.088 242.84 243.016 240.104 243.016 234.776V230.6H237.88ZM259.335 245L268.935 211.4H272.487L282.087 245H279.255L277.431 238.28H263.991L262.167 245H259.335ZM270.711 214.616L264.567 235.88H276.807L270.711 214.616ZM292.174 213.8V211.4H309.502V213.8H302.254V245H299.374V213.8H292.174ZM324.87 245V211.4H339.606V213.8H327.75V227.816H337.638V230.216H327.75V242.6H339.99V245H324.87Z" fill="white"/>
<g filter="url(#filter0_d_0_1)">
<path d="M231.4 34.7191L176.322 2.91987C174.497 1.86594 172.247 1.86594 170.422 2.91987L115.344 34.7191C113.519 35.7731 112.394 37.7208 112.394 39.8287V103.427C112.394 105.535 113.519 107.483 115.344 108.537L170.422 140.336C172.247 141.39 174.497 141.39 176.322 140.336L231.4 108.537C233.225 107.483 234.35 105.535 234.35 103.427V39.8287C234.35 37.7208 233.225 35.7731 231.4 34.7191Z" stroke="white" stroke-width="1.8" shape-rendering="crispEdges"/>
</g>
<path d="M173.372 59.141L182.984 64.6908V75.7903L173.372 81.34L163.76 75.7903V64.6908L173.372 59.141Z" fill="white"/>
<path d="M172.108 3.77488L162.396 7.24348L173.495 1L184.595 7.24348L174.883 3.77488L173.495 21.8116L172.108 3.77488Z" fill="white" stroke="white" stroke-width="0.5"/>
<path d="M174.7 138.225L184.412 134.757L173.312 141L162.213 134.757L171.925 138.225L173.312 120.188L174.7 138.225Z" fill="white" stroke="white" stroke-width="0.5"/>
<path d="M115.678 105.529L123.538 112.206L112.581 105.715L112.438 92.9807L114.291 103.126L130.605 95.3091L115.678 105.529Z" fill="white" stroke="white" stroke-width="0.5"/>
<path d="M114.034 39.2699L112.182 49.4151L112.325 36.6809L123.281 30.1901L115.421 36.8667L130.348 47.0867L114.034 39.2699Z" fill="white" stroke="white" stroke-width="0.5"/>
<path d="M232.182 103.898L234.034 93.7529L233.891 106.487L222.935 112.978L230.795 106.301L215.868 96.0813L232.182 103.898Z" fill="white" stroke="white" stroke-width="0.5"/>
<path d="M230.758 36.5764L222.898 29.8998L233.855 36.3905L233.998 49.1247L232.145 38.9795L215.831 46.7963L230.758 36.5764Z" fill="white" stroke="white" stroke-width="0.5"/>
<path d="M167.334 61.8993L173.414 17.1539L179.493 61.8993L219.769 44.4561L183.293 70.2416L219.769 98.3023L179.493 78.584L173.414 124.846L167.334 78.584L125.538 98.3023L162.775 70.2416L125.538 44.4561L167.334 61.8993Z" fill="white"/>
<defs>
<filter id="filter0_d_0_1" x="107.494" y="1.22943" width="131.756" height="148.797" filterUnits="userSpaceOnUse" color-interpolation-filters="sRGB">
<feFlood flood-opacity="0" result="BackgroundImageFix"/>
<feColorMatrix in="SourceAlpha" type="matrix" values="0 0 0 0 0 0 0 0 0 0 0 0 0 0 0 0 0 0 127 0" result="hardAlpha"/>
<feOffset dy="4"/>
<feGaussianBlur stdDeviation="2"/>
<feComposite in2="hardAlpha" operator="out"/>
<feColorMatrix type="matrix" values="0 0 0 0 0 0 0 0 0 0 0 0 0 0 0 0 0 0 0.25 0"/>
<feBlend mode="normal" in2="BackgroundImageFix" result="effect1_dropShadow_0_1"/>
<feBlend mode="normal" in="SourceGraphic" in2="effect1_dropShadow_0_1" result="shape"/>
</filter>
</defs>
</svg>
